<?xml version="1.0" encoding="utf-8"?>
<!-- Generator: Adobe Illustrator 16.0.0, SVG Export Plug-In . SVG Version: 6.00 Build 0)  -->
<!DOCTYPE svg PUBLIC "-//W3C//DTD SVG 1.1//EN" "http://www.w3.org/Graphics/SVG/1.1/DTD/svg11.dtd">
<svg version="1.1" id="Layer_1" xmlns="http://www.w3.org/2000/svg" xmlns:xlink="http://www.w3.org/1999/xlink" x="0px" y="0px"
	 width="511px" height="511px" viewBox="0 0 511 511" enable-background="new 0 0 511 511" xml:space="preserve">
<path fill="#FFFFFF" d="M470.599,92.896c-1.161-3.969-5.31-6.25-9.286-5.087c-3.969,1.158-6.245,5.313-5.088,9.282
	c1.634,5.587,2.46,11.396,2.46,17.267c0,10.901-2.877,21.61-8.323,30.971c-5.298,9.104-12.889,16.772-21.953,22.175l-3.135,1.864
	c-2.269,1.353-3.656,3.793-3.656,6.433v9.454h-17.501v-30.429c8.023-2.916,13.785-10.6,13.785-19.625v-16.347
	c0-11.52-9.368-20.893-20.881-20.893h-0.776c-11.513,0-20.881,9.373-20.881,20.893V135.2c0,9.025,5.759,16.709,13.782,19.622v30.433
	h-17.497V175.8c0-2.639-1.393-5.08-3.657-6.433l-3.135-1.864c-9.068-5.403-16.658-13.072-21.953-22.175
	c-5.446-9.36-8.327-20.07-8.327-30.971c0-34.113,27.836-61.863,62.055-61.863c16.241,0,31.613,6.242,43.282,17.579
	c2.963,2.877,7.704,2.807,10.585-0.156c2.881-2.963,2.811-7.704-0.156-10.584c-14.476-14.063-33.552-21.809-53.711-21.809
	c-42.472,0-77.025,34.468-77.025,76.834c0,13.54,3.583,26.854,10.354,38.499c6.472,11.123,15.7,20.515,26.718,27.197v6.417
	c-3.98,1.946-6.733,6.02-6.733,10.741v34.226c0,6.589,5.36,11.953,11.949,11.953h11.131v10.522c0,7.182,5.836,13.021,13.018,13.021
	h21.181c7.178,0,13.021-5.84,13.021-13.021v-10.522h11.127c6.589,0,11.953-5.364,11.953-11.953v-34.226
	c0-4.722-2.756-8.795-6.736-10.741v-6.417c11.018-6.682,20.245-16.074,26.717-27.197c6.772-11.645,10.354-24.959,10.354-38.499
	C473.655,107.067,472.626,99.848,470.599,92.896z M390.334,118.853c0-3.267,2.651-5.922,5.91-5.922h0.776
	c3.259,0,5.91,2.655,5.91,5.922V135.2c0,3.267-2.651,5.922-5.91,5.922h-0.776c-3.259,0-5.91-2.655-5.91-5.922V118.853z
	 M405.27,251.964h-17.278v-8.573h17.278V251.964z M428.35,228.42h-63.438v-28.195h63.438V228.42z"/>
<path fill="#FFFFFF" d="M396.631,28.362c4.136,0,7.485-3.353,7.485-7.485V8.464c0-4.137-3.35-7.485-7.485-7.485
	c-4.137,0-7.485,3.349-7.485,7.485v12.413C389.146,25.009,392.498,28.362,396.631,28.362z"/>
<path fill="#FFFFFF" d="M350.931,32.323c1.244,2.78,3.973,4.429,6.834,4.429c1.021,0,2.063-0.21,3.057-0.651
	c3.771-1.692,5.462-6.117,3.774-9.891l-5.076-11.333c-1.688-3.774-6.117-5.462-9.891-3.774c-3.771,1.688-5.462,6.117-3.771,9.891
	L350.931,32.323z"/>
<path fill="#FFFFFF" d="M311.441,50.023l9.268,8.285c1.427,1.275,3.212,1.906,4.986,1.906c2.059,0,4.104-0.842,5.582-2.495
	c2.757-3.083,2.492-7.816-0.588-10.573l-9.268-8.285c-3.084-2.756-7.816-2.491-10.569,0.592
	C308.097,42.534,308.361,47.267,311.441,50.023z"/>
<path fill="#FFFFFF" d="M291.879,90.514l11.848,3.801c0.76,0.242,1.527,0.358,2.288,0.358c3.166,0,6.105-2.023,7.123-5.201
	c1.263-3.938-0.904-8.152-4.842-9.415l-11.849-3.797c-3.938-1.263-8.152,0.904-9.415,4.842
	C285.773,85.041,287.941,89.255,291.879,90.514z"/>
<path fill="#FFFFFF" d="M289.738,135.489c0.272,0,0.541-0.016,0.818-0.047l12.371-1.345c4.108-0.444,7.079-4.136,6.631-8.25
	c-0.444-4.109-4.133-7.083-8.25-6.631l-12.369,1.345c-4.113,0.445-7.08,4.141-6.637,8.25
	C282.725,132.646,285.968,135.489,289.738,135.489z"/>
<path fill="#FFFFFF" d="M300.183,164.073c-3.571,2.078-4.78,6.663-2.698,10.234c1.393,2.386,3.898,3.719,6.476,3.719
	c1.278,0,2.573-0.327,3.763-1.018l10.744-6.261c3.575-2.082,4.784-6.663,2.702-10.234c-2.082-3.575-6.663-4.783-10.238-2.702
	L300.183,164.073z"/>
<path fill="#FFFFFF" d="M432.439,36.097c0.994,0.444,2.031,0.655,3.057,0.655c2.857,0,5.591-1.649,6.834-4.429l5.076-11.333
	c1.688-3.774,0-8.203-3.773-9.891c-3.771-1.688-8.203,0-9.892,3.774l-5.072,11.333C426.978,29.98,428.665,34.409,432.439,36.097z"/>
<path fill="#FFFFFF" d="M467.566,60.214c1.773,0,3.559-0.631,4.986-1.906l9.267-8.285c3.08-2.756,3.345-7.489,0.589-10.569
	c-2.757-3.083-7.489-3.349-10.569-0.592l-9.267,8.285c-3.08,2.756-3.346,7.489-0.589,10.573
	C463.461,59.372,465.512,60.214,467.566,60.214z"/>
<path fill="#FFFFFF" d="M480.123,89.473c1.021,3.177,3.961,5.201,7.127,5.201c0.757,0,1.528-0.117,2.289-0.358l11.848-3.801
	c3.934-1.259,6.102-5.474,4.842-9.412c-1.263-3.938-5.481-6.105-9.415-4.842l-11.848,3.797
	C481.028,81.321,478.86,85.536,480.123,89.473z"/>
<path fill="#FFFFFF" d="M504.322,120.561l-12.37-1.345c-4.117-0.46-7.806,2.522-8.254,6.631c-0.444,4.113,2.522,7.805,6.636,8.253
	l12.37,1.345c0.277,0.027,0.55,0.043,0.819,0.043c3.77,0,7.014-2.842,7.431-6.674C511.402,124.701,508.436,121.009,504.322,120.561z
	"/>
<path fill="#FFFFFF" d="M493.074,164.073l-10.744-6.261c-3.571-2.078-8.156-0.873-10.238,2.698
	c-2.081,3.575-0.873,8.156,2.702,10.238l10.745,6.261c1.185,0.69,2.483,1.018,3.762,1.018c2.577,0,5.084-1.333,6.476-3.719
	C497.854,170.736,496.646,166.151,493.074,164.073z"/>
<path fill="#FFFFFF" d="M83.403,173.566h75.918c4.132,0,7.485-3.353,7.485-7.485c0-4.136-3.353-7.485-7.485-7.485H83.403
	c-4.137,0-7.485,3.349-7.485,7.485C75.918,170.214,79.271,173.566,83.403,173.566z"/>
<path fill="#FFFFFF" d="M48.429,361.921h145.863c4.136,0,7.485-3.349,7.485-7.485c0-4.133-3.349-7.485-7.485-7.485H48.429
	c-4.132,0-7.485,3.353-7.485,7.485C40.943,358.572,44.296,361.921,48.429,361.921z"/>
<path fill="#FFFFFF" d="M292.939,282.089c0-24.479-19.903-44.394-44.363-44.394c-24.464,0-44.362,19.915-44.362,44.394
	s19.898,44.394,44.362,44.394C273.036,326.482,292.939,306.568,292.939,282.089z M248.572,252.666
	c15.691,0,28.546,12.371,29.354,27.879c-1.205,0.148-2.422,0.242-3.646,0.242c-15.691,0-28.549-12.375-29.348-27.884
	C246.124,252.751,247.34,252.666,248.572,252.666z M219.185,282.089c0-9.431,4.464-17.837,11.38-23.225
	c3.571,20.917,21.809,36.894,43.715,36.894c0.105,0,0.211-0.008,0.316-0.008c-4.928,9.359-14.736,15.762-26.023,15.762
	C232.37,311.512,219.185,298.311,219.185,282.089z"/>
<path fill="#FFFFFF" d="M429.726,400.26l-37.898-20.658c-5.041-2.749-13.173-4.819-18.916-4.819H242.725v-23.774
	c1.941,0.094,3.891,0.156,5.848,0.156c44.558,0,86.035-24.039,108.253-62.732c2.246-3.91,2.246-8.771,0-12.689
	c-22.214-38.69-63.695-62.726-108.253-62.726c-1.957,0-3.906,0.063-5.848,0.152v-93.006c0-6.877-5.599-12.476-12.476-12.476H92.818
	c-4.136,0-7.485,3.353-7.485,7.485c0,4.137,3.349,7.485,7.485,7.485h134.936v92.125c-5.361,0.913-10.628,2.171-15.782,3.762v-6.542
	c0-6.881-5.595-12.476-12.476-12.476H43.228c-6.881,0-12.476,5.595-12.476,12.476v104.276c0,6.877,5.594,12.477,12.476,12.477
	h134.136c14.99,10.416,32.183,17.539,50.39,20.643v25.384h-90.02c-5.711,0-10.706,3.08-13.438,7.657H48.429
	c-4.132,0-7.485,3.353-7.485,7.485c0,4.136,3.353,7.485,7.485,7.485h73.653v20.522H48.429c-4.132,0-7.485,3.349-7.485,7.485
	c0,4.132,3.353,7.485,7.485,7.485h73.77c0.912,7.754,7.528,13.797,15.536,13.797h90.02v28.748H14.971v-352.79h41.918
	c4.137,0,7.485-3.349,7.485-7.485c0-4.132-3.349-7.485-7.485-7.485H12.476C5.595,107.688,0,113.286,0,120.163v357.776
	c0,6.882,5.595,12.477,12.476,12.477h217.773c6.877,0,12.476-5.595,12.476-12.477V446.7h130.187c5.743,0,13.875-2.074,18.916-4.822
	l37.902-20.659c4.355-2.378,6.854-6.195,6.854-10.479C436.584,406.459,434.085,402.638,429.726,400.26z M169.442,431.729h-31.708
	c-0.354,0-0.682-0.315-0.682-0.659v-40.658c0-0.344,0.324-0.659,0.682-0.659h31.708V431.729z M45.723,313.784v-99.286h151.278v9.735
	c-23.435,10.67-43.466,28.499-56.674,51.509c-2.25,3.918-2.25,8.783,0,12.693c5.368,9.354,11.871,17.84,19.267,25.349H45.723z
	 M153.953,282.089c19.7-33.408,55.836-54.102,94.624-54.102c38.783,0,74.92,20.698,94.624,54.102
	c-19.708,33.403-55.845,54.104-94.624,54.104C209.793,336.193,173.656,315.5,153.953,282.089z M362.136,403.254h-30.784
	c-4.136,0-7.485,3.353-7.485,7.485c0,4.137,3.35,7.485,7.485,7.485h30.784v13.505H184.413v-13.505H296.42
	c4.133,0,7.486-3.349,7.486-7.485c0-4.133-3.354-7.485-7.486-7.485H184.413v-13.501h177.723V403.254z M393.185,424.088l-8.522,4.647
	c-1.806,0.982-4.796,1.934-7.556,2.487v-40.967c2.764,0.558,5.75,1.505,7.556,2.487l8.522,4.647V424.088z M408.155,415.929v-10.375
	l9.516,5.186L408.155,415.929z"/>
</svg>
