<?xml version="1.0" encoding="utf-8"?>
<!-- Generator: Adobe Illustrator 16.0.0, SVG Export Plug-In . SVG Version: 6.00 Build 0)  -->
<!DOCTYPE svg PUBLIC "-//W3C//DTD SVG 1.1//EN" "http://www.w3.org/Graphics/SVG/1.1/DTD/svg11.dtd">
<svg version="1.1" id="Capa_1" xmlns="http://www.w3.org/2000/svg" xmlns:xlink="http://www.w3.org/1999/xlink" x="0px" y="0px"
	 width="512px" height="512px" viewBox="0 0 512 512" enable-background="new 0 0 512 512" xml:space="preserve">
<path fill="#FFFFFF" d="M512,155.39c0-12.803-4.986-24.839-14.041-33.894c-18.243-18.231-47.65-18.655-66.423-1.282
	c-10.242-5.813-23.52-4.366-32.24,4.355c-8.709,8.709-10.164,21.962-4.379,32.197l-75.038,75.038V119.57h48.035
	c4.143,0,7.5-3.357,7.5-7.5s-3.357-7.5-7.5-7.5h-48.035V66.251c0-4.143-3.356-7.5-7.5-7.5c-4.143,0-7.5,3.357-7.5,7.5v38.319
	H127.016c-4.142,0-7.5,3.357-7.5,7.5s3.358,7.5,7.5,7.5h32.729l-88.951,51.308c-0.09,0.052-0.174,0.111-0.263,0.164V119.57h26.484
	c4.142,0,7.5-3.357,7.5-7.5s-3.358-7.5-7.5-7.5H70.532V66.254c0-4.143-3.358-7.5-7.5-7.5c-4.142,0-7.5,3.357-7.5,7.5v38.316H7.5
	c-4.142,0-7.5,3.357-7.5,7.5s3.358,7.5,7.5,7.5h48.032v272.86H7.5c-4.142,0-7.5,3.357-7.5,7.5c0,4.144,3.358,7.5,7.5,7.5h48.032
	v38.316c0,4.143,3.358,7.5,7.5,7.5c4.142,0,7.5-3.357,7.5-7.5V407.43h186.315c4.143,0,7.5-3.356,7.5-7.5c0-4.143-3.356-7.5-7.5-7.5
	h-41.179l31.632-18.25c3.252,2.78,7.284,4.26,11.43,4.26c2.008,0,4.041-0.344,6.021-1.051l40.127-14.298v29.339h-18.031
	c-4.143,0-7.5,3.357-7.5,7.5c0,4.144,3.357,7.5,7.5,7.5h18.031v38.319c0,4.143,3.357,7.5,7.5,7.5s7.5-3.357,7.5-7.5V407.43h48.035
	c4.143,0,7.5-3.356,7.5-7.5c0-4.143-3.357-7.5-7.5-7.5h-48.035v-34.684l13.342-4.754c0.003-0.001,0.006-0.003,0.011-0.004
	c0.242-0.088,0.48-0.188,0.713-0.299c0.055-0.027,0.108-0.058,0.163-0.086c0.169-0.086,0.335-0.178,0.496-0.276
	c0.072-0.043,0.143-0.089,0.213-0.134c0.151-0.101,0.299-0.205,0.442-0.316c0.058-0.044,0.116-0.085,0.173-0.131
	c0.193-0.157,0.381-0.323,0.558-0.499c0.006-0.006,0.012-0.011,0.018-0.017l126.688-126.687c4.085,2.309,8.648,3.47,13.215,3.47
	c6.874,0,13.749-2.616,18.981-7.85c8.722-8.722,10.168-21.999,4.355-32.241C507.48,179.045,512,167.568,512,155.39L512,155.39z
	 M487.354,132.104c6.222,6.22,9.646,14.489,9.646,23.285c0,7.844-2.73,15.262-7.733,21.186l-46.381-46.381
	C455.81,119.319,475.194,119.95,487.354,132.104L487.354,132.104z M288.018,353.175l-21.731-21.731l12.792-35.902
	c6.617-0.688,11.316,0.176,13.699,2.559c2.863,2.863,3.541,9.063,1.957,17.924c-0.008,0.041-0.008,0.084-0.014,0.127
	c-0.035,0.22-0.063,0.441-0.078,0.664c-0.007,0.088-0.011,0.178-0.014,0.267c-0.007,0.194-0.005,0.39,0.003,0.585
	c0.204,4.629,4.438,7.842,8.804,7.059c8.864-1.584,15.063-0.904,17.926,1.959c2.383,2.385,3.246,7.084,2.559,13.698L288.018,353.175
	z M331.969,316.078c-3.067-3.068-6.995-5.15-11.731-6.246l66.89-66.89c2.929-2.93,2.929-7.678,0-10.607
	c-2.93-2.928-7.678-2.928-10.607,0l-66.888,66.888c-1.096-4.74-3.178-8.66-6.247-11.729c-3.07-3.069-7.001-5.142-11.742-6.237
	L404.83,168.068l17.978,17.978l-21.802,21.802c-2.929,2.93-2.929,7.678,0,10.607c2.932,2.929,7.678,2.928,10.607,0l21.802-21.802
	l17.978,17.978L338.205,327.818C337.11,323.078,335.038,319.146,331.969,316.078L331.969,316.078z M304.879,119.57v51.525
	c-0.07-0.041-0.136-0.088-0.207-0.129l-88.94-51.396H304.879z M70.56,197.23c0.007-5.487,2.975-10.609,7.738-13.363l101.75-58.69
	c4.758-2.745,10.666-2.741,15.42,0.008l101.697,58.768c4.759,2.753,7.715,7.875,7.715,13.368v49.484l-33.067,33.068v-54.832
	c0.004-10.839-5.816-20.938-15.19-26.356l-53.666-31.01c-9.38-5.423-21.04-5.426-30.426-0.013l-53.69,30.971
	c-9.393,5.418-15.23,15.512-15.235,26.346v61.98c-0.004,10.839,5.816,20.938,15.19,26.355l53.666,31.011
	c4.694,2.714,9.958,4.069,15.223,4.069c5.256,0,10.514-1.354,15.203-4.058l53.69-30.97c0.101-0.057,0.192-0.123,0.292-0.182
	l-14.794,41.522c-0.676,1.897-1.01,3.843-1.038,5.771l-45.659,26.342c-4.766,2.744-10.68,2.744-15.434-0.006L78.245,328.048
	c-4.747-2.746-7.691-7.864-7.685-13.368V197.23z M256.811,225.038v61.979c-0.002,5.489-2.963,10.606-7.729,13.355l-53.69,30.971
	c-4.759,2.744-10.669,2.743-15.425-0.007L126.3,300.326c-4.75-2.745-7.698-7.865-7.696-13.365v-61.98
	c0.002-5.489,2.964-10.606,7.73-13.355l53.69-30.971c2.378-1.371,5.042-2.057,7.708-2.057c2.669,0,5.338,0.688,7.718,2.063
	l53.666,31.01C253.864,214.417,256.813,219.537,256.811,225.038L256.811,225.038z M70.532,392.43v-51.522
	c0.07,0.04,0.135,0.087,0.205,0.128l88.939,51.396H70.532V392.43z M259.718,363.259c-1.422,0.507-2.409-0.187-2.87-0.646
	c-0.458-0.461-1.154-1.443-0.646-2.869l4.51-12.659l11.663,11.663L259.718,363.259z M484.284,209.558
	c-4.617,4.619-12.133,4.619-16.75,0l-0.23-0.23l-57.17-57.17l-0.229-0.23c-4.618-4.618-4.618-12.132,0-16.75
	c2.309-2.31,5.342-3.464,8.375-3.464c3.032,0,6.065,1.154,8.375,3.464l57.631,57.631
	C488.902,197.426,488.902,204.939,484.284,209.558L484.284,209.558z"/>
</svg>
