<?xml version="1.0" encoding="utf-8"?>
<!-- Generator: Adobe Illustrator 16.0.0, SVG Export Plug-In . SVG Version: 6.00 Build 0)  -->
<!DOCTYPE svg PUBLIC "-//W3C//DTD SVG 1.1//EN" "http://www.w3.org/Graphics/SVG/1.1/DTD/svg11.dtd">
<svg version="1.1" id="Capa_1" xmlns="http://www.w3.org/2000/svg" xmlns:xlink="http://www.w3.org/1999/xlink" x="0px" y="0px"
	 width="512px" height="512px" viewBox="0 0 512 512" enable-background="new 0 0 512 512" xml:space="preserve">
<g>
	<path fill="#FFFFFF" d="M497,13.668H15c-8.284,0-15,6.716-15,15v377.796c0,8.284,6.716,15,15,15h182.61v46.868h-4.321
		c-8.284,0-15,6.716-15,15s6.716,15,15,15h125.422c8.284,0,15-6.716,15-15s-6.716-15-15-15h-4.321v-46.868H497
		c8.284,0,15-6.716,15-15V28.668C512,20.384,505.284,13.668,497,13.668L497,13.668z M30,43.668h452v269.734H30V43.668z
		 M284.391,468.332H227.61v-46.868h56.779v46.868H284.391z M482,391.464H30v-48.062h452V391.464z"/>
	<path fill="#FFFFFF" d="M330.803,106.539c-8.284,0-15,6.716-15,15v113.993c0,8.284,6.716,15,15,15s15-6.716,15-15V121.539
		C345.803,113.255,339.087,106.539,330.803,106.539z"/>
	<path fill="#FFFFFF" d="M260.407,106.539c-8.284,0-15,6.716-15,15v78.357c0,5.245-1.504,12.023-13.232,17.931
		c-3.613,1.82-7.545,2.705-12.017,2.705c-0.016,0-0.03,0-0.045,0c-4.885-0.007-9.122-1.2-12.957-3.65
		c-9.096-5.811-10.959-10.96-10.959-16.903V121.54c0-8.284-6.716-15-15-15c-8.284,0-15,6.716-15,15v78.439
		c0,17.476,8.347,31.668,24.808,42.185c8.669,5.539,18.449,8.354,29.068,8.369h0.082c9.142,0,17.727-1.989,25.515-5.912
		c24.578-12.378,29.737-31.153,29.737-44.724V121.54C275.407,113.255,268.691,106.539,260.407,106.539L260.407,106.539z"/>
</g>
</svg>
