<?xml version="1.0" encoding="utf-8"?>
<!-- Generator: Adobe Illustrator 16.0.0, SVG Export Plug-In . SVG Version: 6.00 Build 0)  -->
<!DOCTYPE svg PUBLIC "-//W3C//DTD SVG 1.1//EN" "http://www.w3.org/Graphics/SVG/1.1/DTD/svg11.dtd">
<svg version="1.1" id="Layer_3" xmlns="http://www.w3.org/2000/svg" xmlns:xlink="http://www.w3.org/1999/xlink" x="0px" y="0px"
	 width="512px" height="512px" viewBox="0 0 512 512" enable-background="new 0 0 512 512" xml:space="preserve">
<path fill="#FFFFFF" d="M496,56h-40V16c0-4.418-3.582-8-8-8H64c-4.418,0-8,3.582-8,8v40H16c-4.418,0-8,3.582-8,8v304
	c0,4.418,3.582,8,8,8h8v8c0,13.255,10.745,24,24,24h200v33.136c-17.112,4.419-27.402,21.872-22.984,38.984
	c4.418,17.111,21.872,27.402,38.984,22.983c17.111-4.418,27.402-21.872,22.984-38.983c-2.91-11.271-11.713-20.074-22.984-22.984V408
	h200c13.255,0,24-10.745,24-24v-8h8c4.418,0,8-3.582,8-8V64C504,59.582,500.418,56,496,56z M272,472c0,8.837-7.164,16-16,16
	c-8.836,0-16-7.163-16-16s7.164-16,16-16C264.836,456,272,463.163,272,472z M440,248h-56V88h56V248z M440,24v48h-64
	c-4.418,0-8,3.582-8,8v176c0,4.418,3.582,8,8,8h64v48H72v-48h64c4.418,0,8-3.582,8-8V80c0-4.418-3.582-8-8-8H72V24H440z M72,88h56
	v160H72V88z M472,384c0,4.418-3.582,8-8,8H48c-4.418,0-8-3.582-8-8v-8h432V384z M488,360H24V72h32v248c0,4.418,3.582,8,8,8h384
	c4.418,0,8-3.582,8-8V72h32V360z"/>
<path fill="#FFFFFF" d="M88,40h16v16H88V40z"/>
<path fill="#FFFFFF" d="M120,40h16v16h-16V40z"/>
<path fill="#FFFFFF" d="M152,40h16v16h-16V40z"/>
<path fill="#FFFFFF" d="M184,40h16v16h-16V40z"/>
<path fill="#FFFFFF" d="M216,40h16v16h-16V40z"/>
<path fill="#FFFFFF" d="M248,40h16v16h-16V40z"/>
<path fill="#FFFFFF" d="M280,40h16v16h-16V40z"/>
<path fill="#FFFFFF" d="M312,40h16v16h-16V40z"/>
<path fill="#FFFFFF" d="M344,40h16v16h-16V40z"/>
<path fill="#FFFFFF" d="M376,40h16v16h-16V40z"/>
<path fill="#FFFFFF" d="M408,40h16v16h-16V40z"/>
<path fill="#FFFFFF" d="M88,280h16v16H88V280z"/>
<path fill="#FFFFFF" d="M120,280h16v16h-16V280z"/>
<path fill="#FFFFFF" d="M152,280h16v16h-16V280z"/>
<path fill="#FFFFFF" d="M184,280h16v16h-16V280z"/>
<path fill="#FFFFFF" d="M216,280h16v16h-16V280z"/>
<path fill="#FFFFFF" d="M248,280h16v16h-16V280z"/>
<path fill="#FFFFFF" d="M280,280h16v16h-16V280z"/>
<path fill="#FFFFFF" d="M312,280h16v16h-16V280z"/>
<path fill="#FFFFFF" d="M344,280h16v16h-16V280z"/>
<path fill="#FFFFFF" d="M376,280h16v16h-16V280z"/>
<path fill="#FFFFFF" d="M408,280h16v16h-16V280z"/>
<path fill="#FFFFFF" d="M160,80v176c0,4.418,3.582,8,8,8h176c4.418,0,8-3.582,8-8V80c0-4.418-3.582-8-8-8H168
	C163.582,72,160,75.582,160,80z M176,88h160v160H176V88z"/>
<path fill="#FFFFFF" d="M256,104c-35.346,0-64,28.654-64,64s28.654,64,64,64c35.346,0,64-28.654,64-64
	C319.96,132.67,291.33,104.04,256,104z M256,216c-26.51,0-48-21.49-48-48s21.49-48,48-48s48,21.49,48,48
	C303.974,194.499,282.498,215.974,256,216z"/>
<path fill="#FFFFFF" d="M227.592,137.32c-2.244,1.482-3.593,3.991-3.592,6.68v48c0,4.418,3.582,8,8,8
	c1.084,0.004,2.157-0.217,3.152-0.648l56-24c4.061-1.742,5.939-6.446,4.197-10.506c-0.809-1.886-2.312-3.389-4.197-4.198l-56-24
	C232.681,135.577,229.835,135.83,227.592,137.32L227.592,137.32z M240,156.136L267.688,168L240,179.864V156.136z"/>
</svg>
