<?xml version="1.0" encoding="utf-8"?>
<!-- Generator: Adobe Illustrator 16.0.0, SVG Export Plug-In . SVG Version: 6.00 Build 0)  -->
<!DOCTYPE svg PUBLIC "-//W3C//DTD SVG 1.1//EN" "http://www.w3.org/Graphics/SVG/1.1/DTD/svg11.dtd">
<svg version="1.1" id="Layer_1" xmlns="http://www.w3.org/2000/svg" xmlns:xlink="http://www.w3.org/1999/xlink" x="0px" y="0px"
	 width="937.5px" height="937.5px" viewBox="0 0 937.5 937.5" enable-background="new 0 0 937.5 937.5" xml:space="preserve">
<g id="surface1">
	<path fill="#FFFFFF" d="M93.75,62.5v156.25H125V62.5c0-17.262,13.988-31.25,31.25-31.25h625c17.262,0,31.25,13.988,31.25,31.25
		h31.25c0-34.516-27.984-62.5-62.5-62.5h-625C121.734,0,93.75,27.984,93.75,62.5z"/>
	<path fill="#FFFFFF" d="M62.5,937.5h718.75c34.516,0,62.5-27.984,62.5-62.5v-62.5H812.5V875c0,17.262-13.988,31.25-31.25,31.25
		S750,892.262,750,875v-46.875c0-8.633-6.992-15.625-15.625-15.625H125V500H93.75v312.5H15.625C6.992,812.5,0,819.492,0,828.125V875
		C0,909.516,27.984,937.5,62.5,937.5z M31.25,843.75h687.5V875c-0.008,10.98,2.875,21.758,8.395,31.25H62.5
		c-17.262,0-31.25-13.988-31.25-31.25V843.75z"/>
	<path fill="#FFFFFF" d="M15.625,468.75h312.5c8.633,0,15.625-6.992,15.625-15.625v-187.5c0-8.633-6.992-15.625-15.625-15.625
		h-312.5C6.992,250,0,256.992,0,265.625v187.5C0,461.758,6.992,468.75,15.625,468.75z M31.25,281.25H312.5V437.5H31.25V281.25z"/>
	<path fill="#FFFFFF" d="M98.328,317.078l-31.25,31.25c-6.098,6.105-6.098,15.988,0,22.094l31.25,31.25l22.094-22.094
		l-20.203-20.203l20.203-20.203L98.328,317.078z"/>
	<path fill="#FFFFFF" d="M245.422,317.078l-22.094,22.094l20.203,20.203l-20.203,20.203l22.094,22.094l31.25-31.25
		c6.098-6.105,6.098-15.988,0-22.094L245.422,317.078z"/>
	<path fill="#FFFFFF" d="M141.414,401.309l31.266-93.762l29.656,9.891l-31.281,93.754L141.414,401.309z"/>
	<path fill="#FFFFFF" d="M921.875,93.75h-531.25c-8.633,0-15.625,6.992-15.625,15.625v312.5c0,8.633,6.992,15.625,15.625,15.625
		h531.25c8.633,0,15.625-6.992,15.625-15.625v-312.5C937.5,100.742,930.508,93.75,921.875,93.75z M906.25,406.25h-500v-38.031
		l140.313-84.188L683.355,372.5c4.699,3.027,10.664,3.32,15.625,0.75l113.121-58.594l94.148,53.781V406.25z M906.25,332.453
		l-85.938-49.141c-4.602-2.641-10.23-2.746-14.941-0.313l-112.605,58.332L555.422,252.5c-5.008-3.234-11.422-3.34-16.535-0.266
		L406.25,331.781V125h500V332.453z"/>
	<path fill="#FFFFFF" d="M742.188,265.625c30.203,0,54.688-24.484,54.688-54.688s-24.484-54.688-54.688-54.688
		S687.5,180.734,687.5,210.938S711.984,265.625,742.188,265.625z M742.188,187.5c12.945,0,23.438,10.492,23.438,23.438
		s-10.492,23.438-23.438,23.438s-23.438-10.492-23.438-23.438S729.242,187.5,742.188,187.5z"/>
	<path fill="#FFFFFF" d="M156.25,515.625v187.5c0,8.633,6.992,15.625,15.625,15.625H562.5c8.633,0,15.625-6.992,15.625-15.625
		v-187.5c0-8.633-6.992-15.625-15.625-15.625H171.875C163.242,500,156.25,506.992,156.25,515.625z M187.5,531.25h359.375V687.5
		H187.5V531.25z"/>
	<path fill="#FFFFFF" d="M218.75,562.5h62.5v31.25h-62.5V562.5z"/>
	<path fill="#FFFFFF" d="M312.5,562.5h140.625v31.25H312.5V562.5z"/>
	<path fill="#FFFFFF" d="M484.375,562.5h31.25v31.25h-31.25V562.5z"/>
	<path fill="#FFFFFF" d="M218.75,625h187.5v31.25h-187.5V625z"/>
	<path fill="#FFFFFF" d="M437.5,625h78.125v31.25H437.5V625z"/>
	<path fill="#FFFFFF" d="M156.25,62.5h31.25v31.25h-31.25V62.5z"/>
	<path fill="#FFFFFF" d="M218.75,62.5H250v31.25h-31.25V62.5z"/>
	<path fill="#FFFFFF" d="M281.25,62.5h31.25v31.25h-31.25V62.5z"/>
	<path fill="#FFFFFF" d="M156.25,125h187.5v31.25h-187.5V125z"/>
	<path fill="#FFFFFF" d="M921.875,562.5H625c-8.633,0-15.625,6.992-15.625,15.625v187.5c0,8.633,6.992,15.625,15.625,15.625h296.875
		c8.633,0,15.625-6.992,15.625-15.625v-187.5C937.5,569.492,930.508,562.5,921.875,562.5z M906.25,750H640.625V593.75H906.25V750z"
		/>
	<path fill="#FFFFFF" d="M671.875,625h31.25v31.25h-31.25V625z"/>
	<path fill="#FFFFFF" d="M671.875,687.5h31.25v31.25h-31.25V687.5z"/>
	<path fill="#FFFFFF" d="M734.375,625H875v31.25H734.375V625z"/>
	<path fill="#FFFFFF" d="M734.375,687.5H875v31.25H734.375V687.5z"/>
	<path fill="#FFFFFF" d="M812.5,468.75h31.25v62.5H812.5V468.75z"/>
</g>
</svg>
